<svg xmlns="http://www.w3.org/2000/svg" xmlns:xlink="http://www.w3.org/1999/xlink" viewBox="0,0,256,256" width="96px" height="96px"><defs><linearGradient x1="14.572" y1="38.199" x2="43.188" y2="9.583" gradientUnits="userSpaceOnUse" id="color-1"><stop offset="0" stop-color="#000000"></stop><stop offset="1" stop-color="#a2a7ab"></stop></linearGradient></defs><g transform="translate(38.4,38.4) scale(0.7,0.7)"><g fill="none" fill-rule="nonzero" stroke="#000000" stroke-width="5.33333" stroke-linecap="butt" stroke-linejoin="miter" stroke-miterlimit="10" stroke-dasharray="" stroke-dashoffset="0" font-family="none" font-weight="none" font-size="none" text-anchor="none" style="mix-blend-mode: normal"><path d="M10.87868,276.25484c-17.19457,0 -31.13352,-13.93895 -31.13352,-31.13352v-234.24265c0,-17.19457 13.93895,-31.13352 31.13352,-31.13352h234.24265c17.19457,0 31.13352,13.93895 31.13352,31.13352v234.24265c0,17.19457 -13.93895,31.13352 -31.13352,31.13352z" id="shape"></path></g><g fill="none" fill-rule="nonzero" stroke="none" stroke-width="1" stroke-linecap="butt" stroke-linejoin="none" stroke-miterlimit="10" stroke-dasharray="" stroke-dashoffset="0" font-family="none" font-weight="none" font-size="none" text-anchor="none" style="mix-blend-mode: normal"><path transform="translate(-0.53333,-37.33133) scale(5.33333,5.33333)" d="M14.975,38.821l-13.387,-13.387c-0.784,-0.784 -0.784,-2.054 0,-2.838l6.667,-6.667c0.784,-0.784 2.054,-0.784 2.838,0l8.12219,8.12219l17.69181,-17.69319c0.784,-0.784 2.054,-0.784 2.838,0l6.667,6.667c0.784,0.784 0.784,2.054 0,2.838l-25.778,25.779c-0.783,0.783 -2.054,0.783 -2.837,0l-2.8215,-2.8215z" id="strokeMainSVG" fill="#dddddd" stroke="#dddddd" stroke-linejoin="round"></path><g transform="translate(-0.53333,-37.33133) scale(5.33333,5.33333)" stroke="none" stroke-linejoin="miter"><path d="M24.48,29.316l-9.505,9.505l-13.387,-13.387c-0.784,-0.784 -0.784,-2.054 0,-2.838l6.667,-6.667c0.784,-0.784 2.054,-0.784 2.838,0z" fill="#505154"></path><path d="M17.797,41.642l-6.667,-6.667c-0.784,-0.784 -0.784,-2.054 0,-2.838l25.777,-25.779c0.784,-0.784 2.054,-0.784 2.838,0l6.667,6.667c0.784,0.784 0.784,2.054 0,2.838l-25.778,25.779c-0.783,0.783 -2.054,0.783 -2.837,0z" fill="url(#color-1)"></path></g></g><g fill="none" fill-rule="nonzero" stroke="none" stroke-width="none" stroke-linecap="butt" stroke-linejoin="none" stroke-miterlimit="10" stroke-dasharray="" stroke-dashoffset="0" font-family="none" font-weight="none" font-size="none" text-anchor="none" style="mix-blend-mode: normal"><path d="M6.11167,211.11333h31.51v8.38h-4.37l-0.39,-4.35h-8.41v29.87l4.24,0.73v3.28h-13.62v-3.28l4.25,-0.73v-29.87h-8.44l-0.37,4.35h-4.4zM38.35167,234.67333c0,-4.16667 1.13,-7.6 3.39,-10.3c2.25333,-2.69333 5.31667,-4.04 9.19,-4.04c3.88667,0 6.96333,1.34333 9.23,4.03c2.26667,2.69333 3.4,6.13 3.4,10.31v0.58c0,4.2 -1.12667,7.63667 -3.38,10.31c-2.26,2.67333 -5.32667,4.01 -9.2,4.01c-3.90667,0 -6.98667,-1.34 -9.24,-4.02c-2.26,-2.68667 -3.39,-6.12 -3.39,-10.3zM43.48167,235.25333c0,2.98667 0.63,5.45 1.89,7.39c1.26,1.94667 3.13,2.92 5.61,2.92c2.43333,0 4.28333,-0.97333 5.55,-2.92c1.26667,-1.94 1.9,-4.40333 1.9,-7.39v-0.58c0,-2.94667 -0.63333,-5.40333 -1.9,-7.37c-1.26667,-1.96 -3.13333,-2.94 -5.6,-2.94c-2.46667,0 -4.32333,0.98 -5.57,2.94c-1.25333,1.96667 -1.88,4.42333 -1.88,7.37zM87.65167,249.02333l-0.42,-3.36c-0.92,1.28667 -2.04333,2.26 -3.37,2.92c-1.32667,0.66 -2.86667,0.99 -4.62,0.99c-3.44,0 -6.12667,-1.24667 -8.06,-3.74c-1.93333,-2.48667 -2.9,-5.76333 -2.9,-9.83v-0.54c0,-4.53333 0.96667,-8.19 2.9,-10.97c1.93333,-2.77333 4.63667,-4.16 8.11,-4.16c1.66667,0 3.13667,0.30667 4.41,0.92c1.28,0.61333 2.37,1.50333 3.27,2.67v-11.49l-4.24,-0.72v-3.31h9.37v36.61l4.25,0.73v3.28zM73.41167,236.00333c0,2.83333 0.58,5.11 1.74,6.83c1.16,1.71333 2.95667,2.57 5.39,2.57c1.52667,0 2.81,-0.34667 3.85,-1.04c1.04667,-0.69333 1.90667,-1.67333 2.58,-2.94v-13.07c-0.66,-1.18 -1.52,-2.12 -2.58,-2.82c-1.05333,-0.69333 -2.32,-1.04 -3.8,-1.04c-2.44667,0 -4.25667,1.01667 -5.43,3.05c-1.16667,2.03333 -1.75,4.67333 -1.75,7.92zM100.28167,234.67333c0,-4.16667 1.13,-7.6 3.39,-10.3c2.25333,-2.69333 5.31667,-4.04 9.19,-4.04c3.88667,0 6.96333,1.34333 9.23,4.03c2.26667,2.69333 3.4,6.13 3.4,10.31v0.58c0,4.2 -1.13,7.63667 -3.39,10.31c-2.25333,2.67333 -5.31667,4.01 -9.19,4.01c-3.90667,0 -6.98667,-1.34 -9.24,-4.02c-2.26,-2.68667 -3.39,-6.12 -3.39,-10.3zM105.41167,235.25333c0,2.98667 0.63,5.45 1.89,7.39c1.26,1.94667 3.13,2.92 5.61,2.92c2.43333,0 4.28333,-0.97333 5.55,-2.92c1.26667,-1.94 1.9,-4.40333 1.9,-7.39v-0.58c0,-2.94667 -0.63333,-5.40333 -1.9,-7.37c-1.26667,-1.96 -3.13333,-2.94 -5.6,-2.94c-2.46667,0 -4.32333,0.98 -5.57,2.94c-1.25333,1.96667 -1.88,4.42333 -1.88,7.37zM142.55167,249.02333v-3.28l2.81,-0.39l13.25,-34.24h4.4l13.03,34.24l2.78,0.39v3.28h-10.88v-3.28l2.86,-0.49l-2.5,-6.98h-15.18l-2.58,6.98l2.87,0.49v3.28zM160.70167,217.70333l-5.99,16.27h12.03l-5.89,-16.27zM181.87167,259.86333v-3.31l4.24,-0.73v-30.94l-4.24,-0.73v-3.3h8.64l0.47,3.43c0.94,-1.28 2.08333,-2.26 3.43,-2.94c1.34667,-0.67333 2.90333,-1.01 4.67,-1.01c3.49333,0 6.20667,1.38333 8.14,4.15c1.93333,2.76667 2.9,6.42667 2.9,10.98v0.54c0,4.06667 -0.97,7.34333 -2.91,9.83c-1.94667,2.49333 -4.63,3.74 -8.05,3.74c-1.73333,0 -3.25667,-0.29 -4.57,-0.87c-1.31333,-0.58 -2.43,-1.44333 -3.35,-2.59v9.71l4.25,0.73v3.31zM204.97167,235.46333c0,-3.21333 -0.62667,-5.84667 -1.88,-7.9c-1.24667,-2.04667 -3.10333,-3.07 -5.57,-3.07c-1.46,0 -2.71,0.33 -3.75,0.99c-1.04,0.66 -1.88333,1.56333 -2.53,2.71v13.72c0.64667,1.16667 1.48667,2.06667 2.52,2.7c1.03333,0.63333 2.30333,0.95 3.81,0.95c2.43333,0 4.27333,-0.88667 5.52,-2.66c1.25333,-1.76667 1.88,-4.06667 1.88,-6.9zM214.16167,259.86333v-3.31l4.25,-0.73v-30.94l-4.25,-0.73v-3.3h8.65l0.46,3.43c0.94,-1.28 2.08333,-2.26 3.43,-2.94c1.34667,-0.67333 2.90333,-1.01 4.67,-1.01c3.49333,0 6.20667,1.38333 8.14,4.15c1.94,2.76667 2.91,6.42667 2.91,10.98v0.54c0,4.06667 -0.97333,7.34333 -2.92,9.83c-1.94667,2.49333 -4.63,3.74 -8.05,3.74c-1.73333,0 -3.25667,-0.29 -4.57,-0.87c-1.30667,-0.58 -2.42,-1.44333 -3.34,-2.59v9.71l4.24,0.73v3.31zM237.26167,235.46333c0,-3.21333 -0.62667,-5.84667 -1.88,-7.9c-1.24667,-2.04667 -3.10333,-3.07 -5.57,-3.07c-1.46,0 -2.71,0.33 -3.75,0.99c-1.04,0.66 -1.88,1.56333 -2.52,2.71v13.72c0.64,1.16667 1.47667,2.06667 2.51,2.7c1.03333,0.63333 2.30333,0.95 3.81,0.95c2.43333,0 4.27333,-0.88667 5.52,-2.66c1.25333,-1.76667 1.88,-4.06667 1.88,-6.9z" id="strokeMainSVG" fill="#dddddd" stroke="#dddddd" stroke-width="10.66667" stroke-linejoin="round"></path><g fill="#000000" stroke="none" stroke-width="1" stroke-linejoin="miter"><path d="M6.11167,211.11333h31.51v8.38h-4.37l-0.39,-4.35h-8.41v29.87l4.24,0.73v3.28h-13.62v-3.28l4.25,-0.73v-29.87h-8.44l-0.37,4.35h-4.4zM38.35167,235.25333v-0.58c0,-4.16667 1.13,-7.6 3.39,-10.3c2.25333,-2.69333 5.31667,-4.04 9.19,-4.04v0c3.88667,0 6.96333,1.34333 9.23,4.03c2.26667,2.69333 3.4,6.13 3.4,10.31v0v0.58c0,4.2 -1.12667,7.63667 -3.38,10.31c-2.26,2.67333 -5.32667,4.01 -9.2,4.01v0c-3.90667,0 -6.98667,-1.34 -9.24,-4.02c-2.26,-2.68667 -3.39,-6.12 -3.39,-10.3zM43.48167,234.67333v0.58c0,2.98667 0.63,5.45 1.89,7.39c1.26,1.94667 3.13,2.92 5.61,2.92v0c2.43333,0 4.28333,-0.97333 5.55,-2.92c1.26667,-1.94 1.9,-4.40333 1.9,-7.39v0v-0.58c0,-2.94667 -0.63333,-5.40333 -1.9,-7.37c-1.26667,-1.96 -3.13333,-2.94 -5.6,-2.94v0c-2.46667,0 -4.32333,0.98 -5.57,2.94c-1.25333,1.96667 -1.88,4.42333 -1.88,7.37zM87.65167,249.02333l-0.42,-3.36c-0.92,1.28667 -2.04333,2.26 -3.37,2.92c-1.32667,0.66 -2.86667,0.99 -4.62,0.99v0c-3.44,0 -6.12667,-1.24667 -8.06,-3.74c-1.93333,-2.48667 -2.9,-5.76333 -2.9,-9.83v0v-0.54c0,-4.53333 0.96667,-8.19 2.9,-10.97c1.93333,-2.77333 4.63667,-4.16 8.11,-4.16v0c1.66667,0 3.13667,0.30667 4.41,0.92c1.28,0.61333 2.37,1.50333 3.27,2.67v0v-11.49l-4.24,-0.72v-3.31h4.24h5.13v36.61l4.25,0.73v3.28zM73.41167,235.46333v0.54c0,2.83333 0.58,5.11 1.74,6.83c1.16,1.71333 2.95667,2.57 5.39,2.57v0c1.52667,0 2.81,-0.34667 3.85,-1.04c1.04667,-0.69333 1.90667,-1.67333 2.58,-2.94v0v-13.07c-0.66,-1.18 -1.52,-2.12 -2.58,-2.82c-1.05333,-0.69333 -2.32,-1.04 -3.8,-1.04v0c-2.44667,0 -4.25667,1.01667 -5.43,3.05c-1.16667,2.03333 -1.75,4.67333 -1.75,7.92zM100.28167,235.25333v-0.58c0,-4.16667 1.13,-7.6 3.39,-10.3c2.25333,-2.69333 5.31667,-4.04 9.19,-4.04v0c3.88667,0 6.96333,1.34333 9.23,4.03c2.26667,2.69333 3.4,6.13 3.4,10.31v0v0.58c0,4.2 -1.13,7.63667 -3.39,10.31c-2.25333,2.67333 -5.31667,4.01 -9.19,4.01v0c-3.90667,0 -6.98667,-1.34 -9.24,-4.02c-2.26,-2.68667 -3.39,-6.12 -3.39,-10.3zM105.41167,234.67333v0.58c0,2.98667 0.63,5.45 1.89,7.39c1.26,1.94667 3.13,2.92 5.61,2.92v0c2.43333,0 4.28333,-0.97333 5.55,-2.92c1.26667,-1.94 1.9,-4.40333 1.9,-7.39v0v-0.58c0,-2.94667 -0.63333,-5.40333 -1.9,-7.37c-1.26667,-1.96 -3.13333,-2.94 -5.6,-2.94v0c-2.46667,0 -4.32333,0.98 -5.57,2.94c-1.25333,1.96667 -1.88,4.42333 -1.88,7.37zM142.55167,249.02333v-3.28l2.81,-0.39l13.25,-34.24h4.4l13.03,34.24l2.78,0.39v3.28h-10.88v-3.28l2.86,-0.49l-2.5,-6.98h-15.18l-2.58,6.98l2.87,0.49v3.28zM160.70167,217.70333l-5.99,16.27h12.03l-5.89,-16.27zM181.87167,259.86333v-3.31l4.24,-0.73v-30.94l-4.24,-0.73v-3.3h8.64l0.47,3.43c0.94,-1.28 2.08333,-2.26 3.43,-2.94c1.34667,-0.67333 2.90333,-1.01 4.67,-1.01v0c3.49333,0 6.20667,1.38333 8.14,4.15c1.93333,2.76667 2.9,6.42667 2.9,10.98v0v0.54c0,4.06667 -0.97,7.34333 -2.91,9.83c-1.94667,2.49333 -4.63,3.74 -8.05,3.74v0c-1.73333,0 -3.25667,-0.29 -4.57,-0.87c-1.31333,-0.58 -2.43,-1.44333 -3.35,-2.59v0v9.71l4.25,0.73v3.31zM204.97167,236.00333v-0.54c0,-3.21333 -0.62667,-5.84667 -1.88,-7.9c-1.24667,-2.04667 -3.10333,-3.07 -5.57,-3.07v0c-1.46,0 -2.71,0.33 -3.75,0.99c-1.04,0.66 -1.88333,1.56333 -2.53,2.71v0v13.72c0.64667,1.16667 1.48667,2.06667 2.52,2.7c1.03333,0.63333 2.30333,0.95 3.81,0.95v0c2.43333,0 4.27333,-0.88667 5.52,-2.66c1.25333,-1.76667 1.88,-4.06667 1.88,-6.9zM214.16167,259.86333v-3.31l4.25,-0.73v-30.94l-4.25,-0.73v-3.3h8.65l0.46,3.43c0.94,-1.28 2.08333,-2.26 3.43,-2.94c1.34667,-0.67333 2.90333,-1.01 4.67,-1.01v0c3.49333,0 6.20667,1.38333 8.14,4.15c1.94,2.76667 2.91,6.42667 2.91,10.98v0v0.54c0,4.06667 -0.97333,7.34333 -2.92,9.83c-1.94667,2.49333 -4.63,3.74 -8.05,3.74v0c-1.73333,0 -3.25667,-0.29 -4.57,-0.87c-1.30667,-0.58 -2.42,-1.44333 -3.34,-2.59v0v9.71l4.24,0.73v3.31zM237.26167,236.00333v-0.54c0,-3.21333 -0.62667,-5.84667 -1.88,-7.9c-1.24667,-2.04667 -3.10333,-3.07 -5.57,-3.07v0c-1.46,0 -2.71,0.33 -3.75,0.99c-1.04,0.66 -1.88,1.56333 -2.52,2.71v0v13.72c0.64,1.16667 1.47667,2.06667 2.51,2.7c1.03333,0.63333 2.30333,0.95 3.81,0.95v0c2.43333,0 4.27333,-0.88667 5.52,-2.66c1.25333,-1.76667 1.88,-4.06667 1.88,-6.9z"></path></g></g></g></svg>